# xmcd
# 
# Track frame offsets:
#     150
#     17537
#     36818
#     50877
#     67901
#     84364
#     99586
#     113728
#     127716
#     142257
#     159516
#     173535
# 
# Disc length: 2533
# 
# Revision: 0
# Processed by: cddbd v1.5.2PL0 Copyright (c) Steve Scherf et al.
# Submitted via: fre:ac v1.0.17
# 
DISCID=9209e30c
DTITLE=BOBBYVILLE - Dr.Alcohol
DYEAR=2011
DGENRE=Country
TTITLE0=술박사
TTITLE1=잡범
TTITLE2=스타벅스의 중심에서 오백 세잔을 외치다
TTITLE3=짤막한 사랑
TTITLE4=난 내가 네 애인인 줄 알았어
TTITLE5=치약의 맛
TTITLE6=케빈
TTITLE7=평생 너만 사랑하고 싶어(근데 잘 안돼)
TTITLE8=서울 부산 428km
TTITLE9=좋은 의미에서 나쁜 남자
TTITLE10=스타벅스의 중심에서 오백 세 잔을 외치다(Inst.)
TTITLE11=난 내가 네 애인인 줄 알았어(Inst.)
EXTD=
EXTT0=
EXTT1=
EXTT2=
EXTT3=
EXTT4=
EXTT5=
EXTT6=
EXTT7=
EXTT8=
EXTT9=
EXTT10=
EXTT11=
PLAYORDER=
